<svg xmlns="http://www.w3.org/2000/svg" width="115" height="151" fill="none" viewBox="0 0 115 151"><rect width="149" height="149" x="-35" y="1" stroke="#7AB767" stroke-dasharray="6 6" stroke-width="2" rx="74.5"/><path fill="#7AB767" fill-rule="evenodd" d="M61 76.0001C61 76.3979 60.842 76.7794 60.5607 77.0607C60.2794 77.342 59.8978 77.5001 59.5 77.5001H24.121L33.562 86.9381C33.8437 87.2197 34.0019 87.6017 34.0019 88.0001C34.0019 88.3984 33.8437 88.7804 33.562 89.0621C33.2803 89.3437 32.8983 89.502 32.5 89.502C32.1017 89.502 31.7197 89.3437 31.438 89.0621L19.438 77.0621C19.2983 76.9227 19.1875 76.7572 19.1119 76.575C19.0362 76.3927 18.9973 76.1974 18.9973 76.0001C18.9973 75.8028 19.0362 75.6074 19.1119 75.4252C19.1875 75.2429 19.2983 75.0774 19.438 74.9381L31.438 62.9381C31.7197 62.6564 32.1017 62.4982 32.5 62.4982C32.8983 62.4982 33.2803 62.6564 33.562 62.9381C33.8437 63.2197 34.0019 63.6017 34.0019 64.0001C34.0019 64.3984 33.8437 64.7804 33.562 65.0621L24.121 74.5001H59.5C59.8978 74.5001 60.2794 74.6581 60.5607 74.9394C60.842 75.2207 61 75.6022 61 76.0001Z" clip-rule="evenodd"/></svg>