<svg width="115" height="151" viewBox="0 0 115 151" fill="none" xmlns="http://www.w3.org/2000/svg">
<rect x="1" y="1" width="149" height="149" rx="74.5" stroke="#7AB767" stroke-width="2" stroke-dasharray="6 6"/>
<path fill-rule="evenodd" clip-rule="evenodd" d="M55 75.9999C55 75.6021 55.158 75.2206 55.4393 74.9393C55.7206 74.658 56.1022 74.4999 56.5 74.4999H91.879L82.438 65.0619C82.1563 64.7803 81.9981 64.3983 81.9981 63.9999C81.9981 63.6016 82.1563 63.2196 82.438 62.9379C82.7197 62.6563 83.1017 62.498 83.5 62.498C83.8983 62.498 84.2803 62.6563 84.562 62.9379L96.562 74.9379C96.7017 75.0773 96.8125 75.2428 96.8881 75.425C96.9638 75.6073 97.0027 75.8026 97.0027 75.9999C97.0027 76.1972 96.9638 76.3926 96.8881 76.5748C96.8125 76.7571 96.7017 76.9226 96.562 77.0619L84.562 89.0619C84.2803 89.3436 83.8983 89.5018 83.5 89.5018C83.1017 89.5018 82.7197 89.3436 82.438 89.0619C82.1563 88.7803 81.9981 88.3983 81.9981 87.9999C81.9981 87.6016 82.1563 87.2196 82.438 86.9379L91.879 77.4999H56.5C56.1022 77.4999 55.7206 77.3419 55.4393 77.0606C55.158 76.7793 55 76.3978 55 75.9999Z" fill="#7AB767"/>
</svg>
