<svg xmlns="http://www.w3.org/2000/svg" width="17" height="20" fill="none" viewBox="0 0 17 20"><path stroke="#9DA5B2" stroke-linecap="round" stroke-linejoin="round" stroke-width="1.5" d="M8.80978 18.57C8.64658 18.6872 8.45071 18.7503 8.24978 18.7503C8.04885 18.7503 7.85298 18.6872 7.68978 18.57C2.86078 15.128 -2.26422 8.048 2.91678 2.932C4.33912 1.53285 6.25462 0.749124 8.24978 0.750001C10.2498 0.750001 12.1688 1.535 13.5828 2.931C18.7638 8.047 13.6388 15.126 8.80978 18.57Z"/><path stroke="#9DA5B2" stroke-linecap="round" stroke-linejoin="round" stroke-width="1.5" d="M8.25 9.75C8.78043 9.75 9.28914 9.53929 9.66421 9.16421C10.0393 8.78914 10.25 8.28043 10.25 7.75C10.25 7.21957 10.0393 6.71086 9.66421 6.33579C9.28914 5.96071 8.78043 5.75 8.25 5.75C7.71957 5.75 7.21086 5.96071 6.83579 6.33579C6.46071 6.71086 6.25 7.21957 6.25 7.75C6.25 8.28043 6.46071 8.78914 6.83579 9.16421C7.21086 9.53929 7.71957 9.75 8.25 9.75Z"/></svg>