<svg xmlns="http://www.w3.org/2000/svg" width="19" height="15" fill="none" viewBox="0 0 19 15"><path fill="#7F7F7F" d="M8.78129 8.762L7.84961 9.69368L8.7793 11.5531L9.69402 10.5875L8.78129 8.762ZM9.37414 12.7427L10.2452 14.4849L11.16 13.5193L10.2889 11.7772L9.37414 12.7427ZM16.5205 5.19926L15.6172 6.15286L17.3525 6.98278L18.2559 6.02918L16.5205 5.19926ZM12.7579 4.78536L14.4322 5.5861L15.3356 4.63254L13.6953 3.84801L12.7579 4.78536ZM11.3979 10.6065L12.512 12.0921L13.3841 11.1716L12.2699 9.68602L11.3979 10.6065ZM11.5091 8.67161L10.3788 7.1645L9.48594 8.05735L10.637 9.59211L11.5091 8.67161ZM11.1228 6.42051L12.5557 7.56688L13.4184 6.65622L12.0121 5.53118L11.1228 6.42051ZM13.5352 8.35047L14.9696 9.49801L15.8323 8.58735L14.3979 7.43985L13.5352 8.35047ZM12.9956 1.2175L11.9706 2.24247L11.005 1.27692C10.1874 0.459321 9.07851 0 7.92225 0C6.76598 0 5.65707 0.459321 4.83945 1.27692C4.82609 1.29024 4.81316 1.30383 4.80004 1.31731C4.34391 0.995969 3.80827 0.806094 3.25158 0.768408C2.6949 0.730723 2.13856 0.846673 1.64328 1.10361C1.148 1.36054 0.732809 1.74858 0.443022 2.22538C0.153235 2.70219 -1.3834e-05 3.24943 9.36654e-10 3.80739V13.2219H1.25V3.80739C1.24999 3.48004 1.33945 3.15892 1.50872 2.87873C1.67798 2.59854 1.9206 2.36994 2.21036 2.21765C2.50012 2.06535 2.826 1.99515 3.15277 2.01463C3.47953 2.03411 3.79476 2.14253 4.06437 2.32817C3.63193 3.15204 3.4739 4.09249 3.61332 5.01246C3.75274 5.93243 4.18232 6.78383 4.83945 7.44258L5.80496 8.40809L4.87059 9.34251L5.65184 10.1238L13.7768 1.99875L12.9956 1.2175ZM6.6018 7.43719L5.72332 6.55872C5.14579 5.97436 4.82297 5.18519 4.82538 4.3636C4.82778 3.54201 5.15522 2.75475 5.73617 2.17379C6.31711 1.59282 7.10436 1.26536 7.92595 1.26292C8.74754 1.26049 9.53671 1.58327 10.1211 2.16079L10.9996 3.0393L6.6018 7.43719Z"/></svg>